<svg width="1242" height="726" viewBox="0 0 1242 726" fill="none" xmlns="http://www.w3.org/2000/svg">
<g opacity="0.23">
<path d="M1451.03 0.10541C1451.03 95.3624 1432.27 189.687 1395.82 277.693C1359.36 365.699 1305.93 445.663 1238.58 513.02C1171.22 580.377 1091.26 633.807 1003.25 670.26C915.244 706.713 820.919 725.476 725.662 725.476C630.405 725.476 536.081 706.713 448.075 670.26C360.069 633.807 280.105 580.376 212.748 513.02C145.391 445.663 91.9608 365.699 55.5075 277.693C19.0542 189.687 0.291984 95.3623 0.291992 0.105347L1451.03 0.10541Z" fill="#AB3900"/>
<path d="M1450.97 6.19729C1450.97 90.0829 1434.51 167.49 1402.41 244.99C1370.31 322.491 1323.25 392.909 1263.94 452.225C1204.62 511.541 1134.2 558.593 1056.7 590.695C979.204 622.796 896.14 639.319 812.254 639.319C728.369 639.319 645.304 622.796 567.804 590.695C490.304 558.593 419.886 511.541 360.57 452.225C301.254 392.909 254.201 322.491 222.1 244.99C189.998 167.49 173.476 84.4261 173.476 0.540489L1450.97 6.19729Z" fill="#DB5F21"/>
<path d="M1450.97 6.19729C1450.97 78.1972 1436.85 143.835 1409.3 210.354C1381.74 276.874 1341.36 337.315 1290.45 388.226C1239.54 439.138 1179.1 479.523 1112.58 507.076C1046.06 534.629 974.762 548.811 902.762 548.811C830.762 548.811 759.468 534.629 692.948 507.076C626.429 479.523 565.988 439.138 515.077 388.226C464.165 337.315 423.78 276.874 396.227 210.354C368.673 143.835 354.492 72.5404 354.492 0.540497L1450.97 6.19729Z" fill="#F37232"/>
<path d="M1451.03 0.10541C1451.03 59.0196 1439.43 117.357 1416.88 171.787C1394.34 226.216 1361.29 275.672 1319.63 317.331C1277.97 358.989 1228.52 392.035 1174.09 414.58C1119.66 437.126 1061.32 448.73 1002.41 448.73C943.494 448.73 885.157 437.126 830.727 414.58C776.298 392.035 726.842 358.989 685.183 317.331C643.524 275.672 610.479 226.216 587.933 171.786C565.388 117.357 553.784 59.0196 553.784 0.105371L1451.03 0.10541Z" fill="#C67D00"/>
<path d="M1451.03 0.10541C1451.03 40.8482 1443.01 81.192 1427.42 118.833C1411.82 156.475 1388.97 190.677 1360.16 219.486C1331.35 248.296 1297.15 271.149 1259.51 286.74C1221.87 302.332 1181.52 310.357 1140.78 310.357C1100.04 310.357 1059.69 302.332 1022.05 286.74C984.412 271.149 950.21 248.296 921.4 219.486C892.591 190.677 869.738 156.475 854.146 118.833C838.555 81.192 830.53 40.8482 830.53 0.105383L1451.03 0.10541Z" fill="#F09A07"/>
<path d="M1208.23 6.19729H1450.97L1451.03 588.843H1208.23V6.19729Z" fill="#FFFAF8"/>
</g>
</svg>
